<?xml version="1.0" encoding="UTF-8"?><svg id="Objects" xmlns="http://www.w3.org/2000/svg" viewBox="0 0 365.77 165.28"><defs><style>.cls-1{fill:#fff;}.cls-2{fill:#81b6c6;}.cls-3{fill:#3f6070;}.cls-4{fill:#678b9e;}.cls-5{fill:#a52d3e;}.cls-6{fill:#f7546f;}.cls-7{fill:#9accd8;}.cls-8{fill:#243f49;}</style></defs><g><path class="cls-4" d="M254.55,48.2c-9.06-7.57-17.99-16.09-27.95-22.46-.62-.4-1.28,.5-.77,1,8.34,8.15,18.52,14.86,27.84,21.87-8.03-.49-16.05-1.33-24.18-2.78-1.59-8.05-4.25-15.72-6.88-23.49-1.43-4.21-5.2-9.86-.86-13.82,2.43-2.22,9.87-1.43,13.79-1.38,4.98,5.11,8.6,12.64,11.44,18.53-6.69-5.33-13.35-10.83-20.39-15.67-.62-.42-1.36,.55-.8,1.04,6.98,5.95,14.57,11.29,21.93,16.75,.09,.06,.18,.08,.26,.09,3.15,6.89,5.64,14.1,8.9,20.93-.76-.04-1.51-.1-2.27-.14,.08-.16,.09-.34-.06-.47Z"/><path class="cls-7" d="M226.59,25.74c-.48-.31-.98,.16-.95,.62-1.73-2.24-3.07-4.99-3.84-7.07-.72-1.93-1.71-4.52-.95-6.58,.87-2.38,2.99-2.16,5.1-1.53,6.93,5.89,14.45,11.19,21.75,16.61,.09,.06,.18,.08,.26,.09,3.15,6.89,5.64,14.1,8.9,20.93-.76-.04-1.51-.1-2.27-.14,.08-.16,.09-.34-.06-.47-9.06-7.57-17.99-16.09-27.95-22.46Z"/><path class="cls-3" d="M154.89,29.46c-.45-3.56-4.01-15.16,3.59-15.24,5.99-.06,6.04,13.12,6.7,16.99,.8,4.69,1.99,9.29,3.46,13.82-3.93,.08-7.83,.14-11.71,.17-.69-5.25-1.37-10.49-2.04-15.74Z"/><path class="cls-7" d="M86.59,66.79c-.95,0-4.19,.5-5.03,.14-.61-.78-1.21-1.56-1.81-2.34,.58,.01,1.16,.06,1.73,.12,5.16,.42,10.7,1.65,15.89,1.07-1.38,1.97-9.11,1-10.78,1.01Z"/><path class="cls-6" d="M227.47,119.54c1.02-5.95,3.01-11.7,6.67-16.56,7.24-9.6,19.46-13.24,31.09-12.53,10.62,.65,22.08,4.09,29.95,11.55,8.26,7.83,10.29,19.79,9.25,30.72,14.08-.48,29.15-.8,43.15,.57,2.42-2.41,5.45-4.16,7.89-6.59,2.47-2.47,4.63-5.4,6.59-8.31-.44-6-.03-11.85,0-17.65-4.51-7.77-9.16-14.56-16.7-19.86-7.08-4.97-14.75-6.98-23-8.98-.51-.13-.4-.92,.12-.92,15.47,.01,32.23,11.41,39.51,25.42-.21-5.15-.96-10.28-3.14-15.45-5.11-12.1-18.79-23.13-31.13-27.22-.31-.1-.51-.28-.68-.49-8.35,.21-16.89-1.25-25.25-1.49-8.98-.27-17.98-.22-26.97-.27-14.24-.08-32.79,2.38-45.8-4.64-.32,.15-.7,.1-.89-.32-2.61-5.74-4.52-11.53-6.4-17.56-1.57-5.05-5.43-12.41-4.96-17.75,.58-6.64,10.32-6.6,16.53-6.11-.93-.75-1.9-1.4-2.92-1.95-2.78,.02-5.6-.46-8.38-.51-3.2-.05-6.4,.49-9.59,.33-.66,.62-1.29,1.28-1.94,1.92-.61,.61-1.15,1.35-1.77,1.97,5.29,12.54,8.11,26.3,12,39.32,.11,.37-.01,.79-.28,1.06-2.15,2.14-4.1,3.86-6.64,5.48-.45,.29-.93,.08-1.21-.28-.16-.03-.32-.06-.48-.09-16.91,1.04-33.85,1.64-50.8,2.09,.08,.74,.16,1.54,.12,2.29,.27,.25,.39,.7,.19,1.03-1.04,1.79-2.74,3.23-4.15,4.73-1.03,1.1-2.04,2.7-3.28,3.74,.4,1.29,.79,2.61,1.17,3.92,2.75,0,5.5,0,8.24,0,25.69-.05,51.38,0,77.07-.08,26.16-.09,52.58-1.12,78.71,.27,1.09,.06,1.1,1.64,0,1.7-26.14,1.38-52.54,.35-78.71,.26-25.69-.08-51.38-.03-77.07-.08-2.54,0-5.09,0-7.63,0,4.39,15.23,7.84,31.49,10.01,46.97,2.62,0,5.23,.01,7.85,.01,17.8,0,35.9-.94,53.66,.34Zm-47.18-50.84c-2.53,.58-5.94-.19-8.54-.32-1.89-.1-6.3,.33-7.85-.89-1.83-1.44-.92-3.5,.92-4.47,2.02-1.06,4.65-.61,6.83-.55,3.1,.08,6.2,.11,9.26,.63,.22,.04,.34,.15,.41,.28,.1,.05,.19,.12,.26,.22,1.42,2.02,1.39,4.48-1.3,5.1Zm151.11,28.28c-.15-8.03,8.75-6.23,14.14-3.98,8.08,3.37,12.46,10.56,13.02,19.05,.02,.27-.11,.46-.29,.58-.77,6.2-11.07,5.51-15.66,4.61-9.4-1.84-11.07-11.99-11.22-20.26Zm-17.76-37.57c-.09,.43-.54,.71-.95,.72-2.13,.08-15.91,1.46-13.05-4.17,.3-.59,1.15-.07,.88,.52,.49,1.72,1.43,2.33,2.82,1.84,.08-.01,.17-.02,.25-.03,1.06-.09,2.12-.11,3.18-.13,1.65-.02,3.31-.01,4.96,.01-.27-.83-1.59-1.32-3.25-1.61-.9-.02-1.81-.07-2.69-.25-.05,0-.07-.05-.11-.07-2.14-.14-4.15-.1-4.73-.11-.84-.02-.82-1.22,0-1.3,2.91-.26,6.44-.08,9.37,.65,.11,0,.23,.02,.34,.02,.13,0,.23,.06,.31,.12,.02,0,.05,0,.07,.02,1.79,.52,2.97,1.88,2.57,3.77Zm4.92,.78c-1.79-.54-3.01-2.63-1.38-4.08,.91-.81,2.38-.77,3.51-.78,2.13,0,4.2,.33,6.26,.81,.7,.16,.39,1.16-.29,1.05-1.54-.24-3.09-.38-4.65-.44-.73-.03-1.47-.08-2.2-.03-.32,.04-.63,.08-.95,.11-.58,1.42-.35,2.11,.7,2.05,1.16,.37,2.71,.22,3.92,.3,.55,.03,1.1,.07,1.65,.11,.38,.03,.76,.06,1.15,.09,.66,.12,1.18-.21,1.56-.99-.62-.42-.26-1.5,.53-1.27,1.88,.56,1.47,2.97-.09,3.7-1.18,.55-2.75,.19-3.97,.06-1.86-.19-3.95-.16-5.75-.7Z"/><path class="cls-5" d="M283.4,94.51c7.79,1.67,14.54,9.18,20.57,13.51,7.96,5.72,17.17,7.56,26.86,6.36,1.68-.21,3.38-.53,5.06-.97,1.62,1.88,3.79,3.26,6.72,3.83,4.58,.9,14.89,1.6,15.66-4.61,.18-.13,.31-.32,.29-.58-.37-5.6-2.44-10.61-6.11-14.35,.93-3.84,.79-7.75-.67-11.25,4.05,4.21,7.2,9.02,10.26,14.29-.03,5.8-.44,11.65,0,17.65-1.96,2.91-4.12,5.84-6.59,8.31-2.43,2.43-5.47,4.18-7.89,6.59-14-1.37-29.07-1.05-43.15-.57,1.04-10.93-.99-22.9-9.25-30.72-3.38-3.2-7.42-5.66-11.78-7.48Z"/><path class="cls-5" d="M213.72,104.02c11.6-7.76,26.03-11.89,40.2-12.83-7.72,1.54-14.89,5.3-19.79,11.79-3.66,4.86-5.65,10.61-6.67,16.56-9.13-.66-18.36-.73-27.59-.64,3.49-5.88,8.11-11.04,13.84-14.87Z"/><path class="cls-6" d="M159.74,57.05c-.14-.83-.11-1.74-.07-2.58-15.6,.41-31.21,.72-46.8,1.15-12.3,.34-24.71,.89-37.14,1.37,.22,.78,.37,1.57,.49,2.39,.11,.8,.29,1.6-.26,2.25-.14,.16-.46,.21-.63,.08-.03-.02-.05-.06-.08-.08-.76,.81-1.53,1.59-2.41,2.28-.98,.76-1.94,1.62-3.15,1.95,.55,1.36,1.09,2.75,1.62,4.17,27.3-.05,54.6,.12,81.88,.12-.17-1.04-.35-2.09-.51-3.13-.54,.02-.95-.42-.86-1.03,.28-2.03,2.41-3.96,3.75-5.4,1.22-1.3,2.59-2.66,4.18-3.54Zm-60.19,8.9c-1.01,4.66-7.79,2.98-11.28,2.91-2.99-.06-9.91,.95-11.66-2.44-1.22-2.36,.9-4.02,3.14-4.15,2.88-.17,6,.55,8.86,.85,3.23,.34,6.58,.47,9.64,1.59,0,0,0,0,0,0,.66-.15,1.48,.37,1.29,1.24Z"/><path class="cls-3" d="M69.75,33.37c-.27-2.55-.54-5.11-.77-7.67-.34-3.88-1.27-3.96,3.16-5.63,3.24-2.54,5.12-1.58,5.64,2.89,.27,1.74,.47,3.48,.59,5.23,.2,2.09,.32,4.19,.5,6.29,.36,4,.64,8.02,1.37,11.97-3.01,.09-6.01,.17-9.02,.26-.39-4.45-1-8.89-1.47-13.34Z"/><path class="cls-8" d="M157.78,33.15c1.57,.87,4.92,2.59,8.64,3.98,.64,2.67,1.38,5.3,2.23,7.91-3.93,.08-7.83,.14-11.71,.17-.6-4.57-1.19-9.15-1.78-13.73,.83,.58,1.69,1.15,2.62,1.66Z"/><path class="cls-8" d="M79.19,38.02c.25,2.82,.54,5.64,1.05,8.42-3.01,.09-6.01,.17-9.02,.26-.39-4.45-1-8.89-1.47-13.34-.02-.23-.05-.47-.07-.71,2.52,1.92,5.89,3.89,9.51,5.36Z"/><path class="cls-8" d="M265.22,92.5c10.37,.66,22.05,4.11,29.52,11.67,7.47,7.56,7.97,17.77,8.64,27.7-.67-.27-1.57-.4-2.28-.14,1.06-17.39-10.56-32.61-26.71-36.57-.07-.1-.16-.19-.3-.23-21.11-5.7-41.99,4.81-43.97,27.5-.26,2.97-.24,5.92,.02,8.8-.55-.11-1.14-.23-1.72-.27,.37-9.35,1.51-18.91,7.28-26.62,6.87-9.18,18.43-12.54,29.51-11.84Z"/><path class="cls-7" d="M263.33,113.07c5.4,.26,10.62,2.03,13.37,7.33,4.29,8.27-.59,21.8-10.92,21.93-9.24,.12-19.35-6.04-17.29-16.49,1.49-7.57,7.49-12.34,14.83-12.77Z"/><path class="cls-8" d="M94.6,93.22c-.06-.02-.12-.02-.17-.02-16.38-5.14-36.64-1.01-45.44,14.28,1.52-3.01,3.5-5.87,6.09-8.52,7.8-7.99,19.03-10.58,29.83-9.1,9.43,1.29,19.09,4.91,25.34,12.4,6.51,7.79,6.55,17.61,8.11,27.09-.07-.02-.14-.05-.23-.05-.49,0-.95-.03-1.41,.14,.26-15.16-7.1-31.52-22.12-36.21Z"/><path class="cls-4" d="M243.75,123.27c-2.98,12.74,7.34,22.74,19.57,23.23,9.16,.36,18.59-4.82,20.49-14.2,2.55-12.6-6.96-22.22-18.37-24.62-9.88,.4-19.21,5.01-21.68,15.6Zm2.83,4.4c.72-8.84,7.46-17.42,16.67-16.24,7.85-.76,15.3,4.15,16.92,12.43,1.81,9.27-4.06,20.99-14.37,21.09-9.97,.1-20.09-6.56-19.21-17.29Z"/><path class="cls-3" d="M232.9,122.43c-1.79,20.11,10.12,39.84,32.22,39.45,16.94-.29,31.44-12.96,33.35-29.9,2.24-19.91-13.36-35.37-32.82-35.68-.36,0-.62-.15-.79-.36-6.19,.07-12.32,.71-17.95,3.69-8.88,4.7-13.14,13.04-14,22.8Zm8.28,2.85c1.27-11.27,11.24-19.79,22.19-19.43,.03,0,.05-.01,.08,0,.17,0,.35,.04,.52,.06,.61,.04,1.22,.09,1.83,.19,.11,.02,.22,.05,.33,.06,.51,.09,1.02,.16,1.53,.29,.01,0,.02,.01,.03,.02,10.93,2.45,19.76,11.73,18.19,23.85-1.64,12.71-12.98,19.49-25.06,18.22-11.88-1.25-21.04-10.94-19.65-23.24Zm2.28,22.57c.14-.34,.36-.6,.59-.88,.59-.74,1.63,.31,1.04,1.05-.23,.29-.44,.51-.75,.73-.59,.43-1.11-.37-.89-.89Zm-3.35-1.34c-.05-1.07,.53-1.96,.99-2.89,.4-.82,1.85-.23,1.49,.63-.39,.95-.67,1.99-1.49,2.67-.39,.32-.97,.12-.99-.41Z"/><path class="cls-7" d="M174.37,66.58c-1.31-.05-2.62-.12-3.93-.16-.89-.03-2.55,.33-3.27-.02-1.14,.27-1.23-.37-.27-1.91,.65,.01,1.3,.03,1.95,.04,1.17,.03,2.33,.05,3.5,.07,2.67,.03,5.34,.09,8-.2,1,3.46-3.95,2.26-5.98,2.17Z"/><path class="cls-1" d="M344.29,96.04c-.65,.26-1.24,.65-1.76,1.16-1.05,1.04-1.42,2.27-1.35,3.72,.02,.38,.63,.51,.69,.09,.28-1.9,1.85-3.72,3.73-4.27,1.85,1.06,3.42,2.17,4.19,2.86,3.29,2.93,5.78,7.22,6.98,11.51-2.12,3.7-8.49,4.55-13.3,3.52-.19-1.03-.51-2.03-.74-3.05-.35-1.58-.68-3.16-1.02-4.75-.09-.44-.73-.24-.66,.18,.24,1.49,.48,2.98,.71,4.47,.14,.91,.22,1.86,.36,2.79-.83-.26-1.58-.57-2.22-.94-3-1.76-3.95-5.2-4.7-8.34-.56-2.35-2.13-6.71-1.37-8.98,1.22-3.65,6.27-2.16,10.47,0Z"/><path class="cls-7" d="M337.09,106.29c1.29,1,2.75,2.05,4.3,2.89,.12,.77,.25,1.55,.37,2.32,.14,.91,.22,1.86,.36,2.79-.83-.26-1.58-.57-2.22-.94-3-1.76-3.95-5.2-4.7-8.34-.04-.15-.09-.33-.13-.5,.66,.64,1.33,1.23,2.03,1.77Z"/><path class="cls-7" d="M346.49,110.85c4.02,.31,6.51-.77,9.33-2.44,.37,.9,.69,1.81,.95,2.72-2.12,3.7-8.49,4.55-13.3,3.52-.19-1.03-.51-2.03-.74-3.05-.15-.65-.28-1.3-.42-1.96,1.35,.64,2.75,1.1,4.18,1.21Z"/><path class="cls-7" d="M119.61,129.7c.15-2.72,.13-5.52-.12-8.31,.03,0,.05,.02,.09,.02,18.07,.29,36.16,.1,54.23,.1,17.71,0,35.73,.93,53.41-.32-.45,3.18-.66,6.41-.71,9.57-18.2-1.07-36.7-.22-54.93-.24-17.39-.02-35.3-1.22-52.68,.01,.03-.09,.06-.18,.06-.27,.3,0,.63-.2,.65-.56Z"/><path class="cls-6" d="M5.85,65.43c.79-1.18,1.64-2.3,2.57-3.38,1.37-1.58,3.18-2.88,4.38-4.6,20.36,.94,41,.38,61.58-.41-.03,.86,.02,1.7,.12,2.57,.01,.12,.03,.23,.04,.35-1.16,.62-2.29,1.27-3.34,2.07-.99,.76-2.08,1.47-2.66,2.61,0,0,0,.01,0,.02-.36,.06-.67,.38-.56,.88,.31,1.47,.64,2.97,1,4.48-20.4,.05-40.8,.24-61.17,.75-.51,.01-.51,.79,0,.8,20.57,.52,41.15,.71,61.74,.76,1.26,4.91,2.84,9.85,4.99,14.21,.35,.71,1.25,.15,1.16-.49-.64-4.53-1.97-9.21-3.56-13.72,27.13,.05,54.27-.13,81.39-.12,2.68,15.72,6.66,31.98,11.5,46.97-15.15-.03-30.3-.13-45.44,.12-.12,0-.21,.04-.3,.07-.97-7.58-3.66-14.94-9.14-20.36-7.29-7.22-17.89-10.91-27.96-11.63-2.2-.16-4.37-.12-6.47,.09,.1-.24,0-.57-.34-.57-.38,0-.47,.41-.31,.65-15.13,1.77-27.26,12.65-31.19,27-11.92-1.04-25-1.24-36.94-.29-.24-.7-.46-1.44-.65-2.22-1.27-5.14-1.71-10.61-2.12-15.88-.72-9.23,.55-18.69-.35-27.84,.89-.79,1.39-1.88,2.05-2.87Z"/><path class="cls-5" d="M18.93,93.98c13.8,4.44,26.76,1.05,39.98-3.53,4.76-1.65,10.31-3.46,15.68-3.84,.26,.4,.72,.27,.96-.06,1.8-.07,3.57,.03,5.27,.37,.78,.16,1.56,.35,2.34,.54-.33-.03-.66-.08-.98-.11-2.2-.16-4.37-.12-6.47,.09,.1-.24,0-.57-.34-.57-.38,0-.47,.41-.31,.65-15.13,1.77-27.26,12.65-31.19,27-11.92-1.04-25-1.24-36.94-.29-.24-.7-.46-1.44-.65-2.22-1.27-5.14-1.71-10.61-2.12-15.88-.49-6.25-.08-12.6-.03-18.9,1.45,7.37,6.54,14.09,14.81,16.75Z"/><path class="cls-2" d="M43.43,116.29c-.81,3.63-1.1,7.47-.79,11.42-3.84-.93-7.92-.86-11.85-1.11-4.6-.3-9.41-1-14.02-.67-.06-.11-.15-.22-.28-.3-4.05-2.59-6.78-5.23-8.59-9.01,11.53,.85,24.05,.66,35.53-.32Z"/><path class="cls-4" d="M119.61,129.7c.09-1.65,.09-3.33,.04-5.01,15.43,.77,30.87,1.3,46.31,1.73,13.46,.37,27.15,1.82,40.6,1.19,5.09-.24,16.86,.41,17.57-6.24,1.03-.06,2.06-.1,3.08-.17-.45,3.18-.66,6.41-.71,9.57-18.2-1.07-36.7-.22-54.93-.24-17.39-.02-35.3-1.22-52.68,.01,.03-.09,.06-.18,.06-.27,.3,0,.63-.2,.65-.56Z"/><path class="cls-4" d="M23.4,123.55c5.5,.67,14.3-.75,16.08-6.96,1.32-.09,2.64-.19,3.94-.3-.81,3.63-1.1,7.47-.79,11.42-3.84-.93-7.92-.86-11.85-1.11-4.6-.3-9.41-1-14.02-.67-.06-.11-.15-.22-.28-.3-2.18-1.4-3.97-2.81-5.44-4.41,4.11,1,8.24,1.83,12.37,2.33Z"/><path class="cls-7" d="M30.99,51.68c9.21-.44,18.43-.87,27.64-1.23,17.35-.69,34.71-1.19,52.06-1.64,14.96-.38,29.92-.58,44.88-.68,.33,.12,.69,.11,.99,0,2.61-.01,5.22-.06,7.84-.06,17.09-.05,34.62,1.2,51.67-.34-.65,.94-1.62,1.85-2.98,3.04-33.41,.08-66.83,1.65-100.23,2.29-33.33,.65-67.29-.54-100.52,2-.6,.04-.95,.41-1.08,.84-2.12,.99-3.84,3.07-5.3,4.78-.73,.86-1.59,1.82-2.34,2.84-.75-11.93,18.81-11.44,27.36-11.84Z"/><path class="cls-6" d="M44.94,128.41c-.21-.08-.41-.19-.63-.23-.01,0-.03,0-.04,0,.1-1.89,.24-3.76,.46-5.58-.08,1.94,0,3.89,.21,5.82Z"/><path class="cls-3" d="M48.58,114.84c-2.07,7.19-.51,15.19,1.54,22.25,3.04,10.52,9.88,16.1,20.27,18.92,17.26,4.67,37.34,2.57,42.48-17.28,4.83-18.67-3.67-34.16-18.68-44.53-.04-.03-.07-.07-.11-.11-17.65-2.44-39.75,.8-45.5,20.75Zm35.51-12.73c.15-.11,.35-.16,.6-.11,11.98,2.34,19.43,14.53,16.93,26.34-2.61,12.34-15.13,20.02-27.42,18.53-28.76-3.49-16.39-52.77,9.89-44.76Zm-31.17,36.11c.07-.41,.23-.77,.38-1.15,.43-1.13,2.11-.35,1.49,.63-.25,.4-.48,.79-.81,1.14-.47,.5-1.16-.03-1.06-.62Zm-2.56-3.27c.07-1.34,1.16-2.43,1.91-3.47,.86-1.2,2.86-.05,1.99,1.17-.8,1.12-1.52,2.57-2.84,3.12-.49,.2-1.09-.31-1.06-.81Z"/><path class="cls-8" d="M260.83,148.52c12.08,1.27,23.42-5.51,25.06-18.22,.17-1.31,.19-2.58,.13-3.81,.34,3.32,.1,6.72-.45,9.51-1.54,7.83-6.35,13.79-14.21,16.15-7.67,2.3-16.68,1.08-22.66-4.61-4.21-4.01-6.49-9.14-6.94-14.49,2.27,8.42,9.83,14.5,19.06,15.47Z"/><path class="cls-8" d="M74.2,146.87c12.29,1.49,24.81-6.19,27.42-18.53,.74-3.49,.59-7-.27-10.29,4.5,11.37,1.59,27.69-9.65,32.94-7.88,3.68-17.43,1.74-23.76-4.13-1.33-1.23-2.44-2.51-3.37-3.83,2.48,1.97,5.65,3.35,9.63,3.84Z"/><path class="cls-7" d="M81.08,107.78c7.33,2.89,13.52,7.25,13.64,16.12,.11,8.19-6.46,14.7-14.67,14.66-20.04-.1-17.55-33.71,1.03-30.78Z"/><path class="cls-4" d="M60.95,117.85c-4.07,12.5,2.83,27.33,17.2,26.72,10.6-.45,19.72-7.13,21.49-17.88,1.64-10.01-4.16-17.71-12.47-21.95-11.07-3.08-22.47,1.58-26.22,13.12Zm20.04-11.91c22.24,1.25,19.22,38.66-3.17,35.38-21.67-3.18-14.01-41.23,3.17-35.38Z"/><path class="cls-1" d="M257.91,116.89c.17-.12,.36,.14,.22,.28-1.9,1.83-5.6,4.85-6.08,7.88,.34-.49,.72-.95,1.23-1.36,.22-.18,.51,.04,.39,.3-.58,1.24-1.24,2.39-1.18,3.8,.04,.89-1.24,1.21-1.67,.45-2.57-4.63,3.97-9.12,7.09-11.35Z"/><path class="cls-1" d="M254.64,123.42c.03-.07,.14-.02,.12,.05-.27,.98-.14,1.82,0,2.75,.66-.33,1.46-.73,1.6-1.43,.07-.35,.62-.43,.77-.1,.19,.42,.64,.44,.71,.97,.02,.13-.03,.29-.18,.32-.41,.07-.59,.16-.96-.12-.08-.06-.13-.12-.18-.19-.24,.23-.47,.46-.74,.65-.36,.26-.74,.49-1.11,.74-.18,.12-.47,0-.51-.21-.24-1.12,.03-2.4,.49-3.43Z"/><path class="cls-1" d="M258.05,125.34c.06,.02,.13,.03,.19,.05,.12,.03,.12,.22,0,.25-.06,.02-.13,.03-.19,.05-.29,.07-.29-.42,0-.35Z"/><path class="cls-1" d="M264.96,135.37c.76-.65,1.17-.56,2.2-1.08,.66-.33,1.73,.06,1.63,.94-.09,.83-.23,1.66-.36,2.49,4.92-3.24,6.33-11.21,4.39-16.47-.09-.24,.27-.45,.43-.25,5.35,6.36,2.13,18.49-6.19,20.63-1.18,.3-2.02-.73-1.83-1.83,.18-1.04,.49-2.01,.82-2.99-.32-.04-.64-.14-.96-.38-.32-.23-.49-.75-.14-1.05Z"/><path class="cls-1" d="M262.6,134.75c.37-.26,.74-.41,1.16-.58,.55-.23,1.04-.53,1.57-.8,.18-.09,.39,.06,.34,.26-.32,1.21-1.85,2.36-3.07,1.65-.21-.13-.18-.41,0-.54Z"/><path class="cls-1" d="M261.3,132.92c-.15,.41-.29,.68-.73,.76-.16,.03-.37-.04-.4-.23-.03-.18-.04-.37-.09-.54-.31-1.07,1.58-.96,1.22,0Z"/><path class="cls-1" d="M79.97,126.47c.9,2.32,2.05,.5,3.3-.47,.7-.54,1.65,.21,1.67,.96,.05,1.69-.47,3.65-.34,5.43,3.27-3.49,7.09-10.67,4.21-14.13-.18-.22,.05-.56,.31-.41,6.35,3.78-.28,15.4-4.56,18.42-.61,.43-1.66,.15-1.99-.52-1.1-2.26-.26-4.35,.07-6.57-1.61,.85-2.75,.37-3.23-2.55-.06-.36,.42-.49,.55-.15Z"/><path class="cls-1" d="M78.46,110.14c.33,0,.42,.52,.08,.58-4.68,.85-7.56,6.13-8.27,11.02,.66-.7,1.43-1.29,2.38-1.73,.62-.29,1.58,.19,1.29,.99-.03,.07-.04,.13-.07,.2,.32-.17,.65-.32,1.02-.43,.23-.07,.34,.21,.21,.37-.71,.88-1.56,1.61-2.26,2.49-.52,.66-1.62-.05-1.38-.8,.02-.05,.03-.09,.04-.13-.99,.94-1.37,2.25-1.2,3.87,.18,1.75-2.49,1.7-2.71,0-.83-6.6,3.25-16.5,10.86-16.41Z"/><g><path class="cls-1" d="M319.52,56.56c1.64,.04,3.25-.14,4.88-.31,1.38-.14,3.38-.14,3.46,1.7,.03,.6-.38,.99-.87,1.23-.36,.14-.88,.32-1.09,.33-.71,.03-1.42,.17-2.13,.24-1.49,.17-3.25,.57-4.72,.16-1.84-.51-1.5-3.4,.46-3.35Z"/><path class="cls-1" d="M326.88,59.25s.08-.04,.12-.07c.41-.15,.61-.24-.12,.07Z"/></g><path class="cls-1" d="M300.7,55.7c1.43-.91,3.91-.6,5.53-.53,1.75,.08,3.96,.18,5.46,1.18,1.52,1.02,.5,3.03-1.18,2.79-1.62-.23-3.17-.52-4.82-.58-1.41-.04-3.32,.38-4.64-.13-1.2-.46-1.52-2-.36-2.74Z"/><path class="cls-1" d="M245.3,28.14c1.37,2.32,2.75,4.56,3.83,7.03,.8,1.82,1.86,3.92,1.29,5.91-.16,.56-.88,.75-1.3,.34-1.4-1.36-1.66-3.51-2.21-5.32-.74-2.47-1.6-4.99-2.79-7.28-.41-.78,.73-1.45,1.18-.69Z"/><path class="cls-1" d="M244.8,33.9c.41,.52,1.31,1.52,.64,2.19-.64,.64-1.52-.57-1.91-.91-.89-.78,.56-2.18,1.28-1.28Z"/></g><g><path d="M1.83,68.27c-3.39,12.02-1.36,26.74,.48,38.87,1.03,6.83,3.56,19.99,12.64,20.04,.06,.27,.25,.5,.62,.59,4.58,1.09,9.45,.98,14.14,1.27,4.44,.28,9.02,.98,13.44,.38,.03,.05,.06,.11,.09,.16,.17,.29,.49,.47,.82,.47,.38,0,.74-.05,1.11-.14,1.97,12.89,9.72,25.85,22.33,29.52,.12,.03,41.38,11.06,47.87-19.99,.43-2.04,.91-4.12,1.13-6.27,18.13,1.53,36.88,.2,55.07,.18,18.24-.02,36.74,.83,54.95-.24,1.13,.63,2.63,.28,3.85,.03,1.89,14.29,10.24,26.51,24.16,30.59-5.95,.06,42.62,11.87,46.41-30.28-.05,.57,1.21,.15,1.81-.03-.35,.72,0,1.78,1.06,1.82,14.35,.55,29.77,.97,44.08-.4,.17-.02,.3-.08,.41-.16,7.17-1.61,13.27-9.7,15.6-16.2,.09-.24,.05-.44-.05-.6,3.25-12.67,2.55-28.89-3.38-40.61-5.9-11.66-19.75-22.3-31.96-26.4-.55-.19-.99-.03-1.31,.26-14.3-3.75-31.46-2.08-46.03-1.94-7.35,.07-14.56,.02-21.71-.26-3.01-10.54-8.08-20.97-13.49-30.42-3.02-5.27-7.41-14.39-13.9-16.37-.04-.04-.06-.1-.12-.13-5.19-2.45-13.67-2.58-19.24-.8-.23-.12-.51-.16-.77-.01-1.87,1.03-3.96,2.89-4.5,5.1-.17,.18-.28,.42-.24,.67,1.35,7.8,4.03,15.44,6.29,23.03,1.03,3.46,2.63,7.12,3.25,10.66,.47,2.67,.54,4.33,.05,5.71-15.21-1.93-30.96-1.66-46.49-1.36-.95-4.39-2.15-8.72-3.13-13.11-.93-4.18-1.08-8.56-2.21-12.69-1.01-3.67-3.43-7.39-7.72-7.44-4.26-.05-5.92,3.82-5.96,7.51-.1,8.48,1.95,17.47,3.15,25.96-21.63,.1-43.26,.32-64.88,.95-2.4,.07-4.8,.14-7.2,.21,.15-7.84-.02-17.72-2.52-25.1-1.16-3.43-3.84-6.71-7.78-6.61-5.02,.13-6.05,4.31-5.96,8.46,.16,7.76,1.1,15.93,2.48,23.65-15.25,.47-30.51,1.05-45.7,2.19-9.42,.71-26.22,5.16-21.07,18.22-.03,.15-.08,.31-.1,.46-.03,.25,.03,.44,.13,.6M78.88,34.48c.36,4,.64,8.02,1.37,11.97-3.01,.09-6.01,.17-9.02,.26-.39-4.45-1-8.89-1.47-13.34-.27-2.55-.54-5.11-.77-7.67-.34-3.88-1.27-3.96,3.16-5.63,3.24-2.54,5.12-1.58,5.64,2.89,.27,1.74,.47,3.48,.59,5.23,.2,2.09,.32,4.19,.5,6.29m86.31-3.26c.8,4.69,1.99,9.29,3.46,13.82-3.93,.08-7.83,.14-11.71,.17-.69-5.25-1.37-10.49-2.04-15.74-.45-3.56-4.01-15.16,3.59-15.24,5.99-.06,6.04,13.12,6.7,16.99m82.78-3.34c3.15,6.89,5.64,14.1,8.9,20.93-.76-.04-1.51-.1-2.27-.14,.08-.16,.09-.34-.06-.47-9.06-7.57-17.99-16.09-27.95-22.46-.62-.4-1.28,.5-.77,1,8.34,8.15,18.52,14.86,27.84,21.87-8.03-.49-16.05-1.33-24.18-2.78-1.59-8.05-4.25-15.72-6.88-23.49-1.43-4.21-5.2-9.86-.86-13.82,2.43-2.22,9.87-1.43,13.79-1.38,4.98,5.11,8.6,12.64,11.44,18.53-6.69-5.33-13.35-10.83-20.39-15.67-.62-.42-1.36,.55-.8,1.04,6.98,5.95,14.57,11.29,21.93,16.75,.09,.06,.18,.08,.26,.09m17.15,134c-22.1,.38-34-19.35-32.22-39.45,.87-9.76,5.12-18.11,14-22.8,5.64-2.98,11.77-3.62,17.95-3.69,.17,.21,.43,.36,.79,.36,19.46,.31,35.05,15.78,32.82,35.68-1.9,16.94-16.41,29.6-33.35,29.9m-34.96-30.65c-.55-.11-1.14-.23-1.72-.27,.37-9.35,1.51-18.91,7.28-26.62,6.87-9.18,18.43-12.54,29.51-11.84,10.37,.66,22.05,4.11,29.52,11.67,7.47,7.56,7.97,17.77,8.64,27.7-.67-.27-1.57-.4-2.28-.14,1.06-17.39-10.56-32.61-26.71-36.57-.07-.1-.16-.19-.3-.23-21.11-5.7-41.99,4.81-43.97,27.5-.26,2.97-.24,5.92,.02,8.8m3.98-28.25c-3.66,4.86-5.65,10.61-6.67,16.56-17.76-1.28-35.86-.34-53.66-.34-2.61,0-5.23,0-7.85-.01-2.17-15.48-5.61-31.74-10.01-46.97,2.54,0,5.09,0,7.63,0,25.69,.05,51.38,0,77.07,.08,26.17,.09,52.57,1.12,78.71-.26,1.1-.06,1.09-1.64,0-1.7-26.13-1.39-52.55-.35-78.71-.27-25.69,.08-51.38,.03-77.07,.08-2.75,0-5.5,0-8.24,0-.39-1.31-.77-2.63-1.17-3.92,1.24-1.04,2.25-2.64,3.28-3.74,1.41-1.51,3.11-2.94,4.15-4.73,.19-.33,.07-.78-.19-1.03,.04-.76-.04-1.55-.12-2.29,16.95-.46,33.89-1.05,50.8-2.09,.16,.03,.32,.06,.48,.09,.28,.36,.76,.57,1.21,.28,2.53-1.62,4.49-3.34,6.64-5.48,.27-.27,.39-.69,.28-1.06-3.88-13.02-6.71-26.78-12-39.32,.62-.62,1.16-1.36,1.77-1.97,.65-.64,1.28-1.29,1.94-1.92,3.18,.16,6.39-.39,9.59-.33,2.78,.05,5.6,.53,8.38,.51,1.02,.54,1.99,1.2,2.92,1.95-6.21-.49-15.95-.53-16.53,6.11-.47,5.34,3.38,12.7,4.96,17.75,1.88,6.03,3.79,11.82,6.4,17.56,.19,.42,.57,.47,.89,.32,13.01,7.02,31.56,4.57,45.8,4.64,8.99,.05,17.99,0,26.97,.27,8.36,.25,16.89,1.7,25.25,1.49,.17,.2,.37,.38,.68,.49,12.34,4.1,26.03,15.12,31.13,27.22,2.18,5.17,2.93,10.3,3.14,15.45-7.29-14.01-24.04-25.4-39.51-25.42-.52,0-.64,.79-.12,.92,8.25,2.01,15.93,4.02,23,8.98,7.54,5.29,12.19,12.08,16.7,19.86-.03,5.8-.44,11.65,0,17.65-1.96,2.91-4.12,5.84-6.59,8.31-2.43,2.43-5.47,4.18-7.89,6.59-14-1.37-29.07-1.05-43.15-.57,1.04-10.93-.99-22.9-9.25-30.72-7.87-7.46-19.33-10.9-29.95-11.55-11.62-.7-23.84,2.93-31.09,12.53m-74.48-48.51c-.03,.84-.06,1.75,.07,2.58-1.59,.88-2.96,2.23-4.18,3.54-1.34,1.44-3.47,3.37-3.75,5.4-.08,.61,.32,1.05,.86,1.03,.16,1.04,.34,2.08,.51,3.13-27.28,0-54.59-.18-81.88-.12-.53-1.41-1.07-2.81-1.62-4.17,1.21-.32,2.17-1.19,3.15-1.95,.88-.69,1.65-1.47,2.41-2.28,.03,.03,.05,.06,.08,.08,.18,.12,.49,.08,.63-.08,.55-.65,.37-1.44,.26-2.25-.11-.83-.27-1.61-.49-2.39,12.43-.48,24.84-1.03,37.14-1.37,15.59-.43,31.2-.74,46.8-1.15m11.91,76.05c-17.39-.02-35.3-1.22-52.68,.01,.03-.09,.06-.18,.06-.27,.3,0,.63-.2,.65-.56,.15-2.72,.13-5.52-.12-8.31,.03,0,.05,.02,.09,.02,18.07,.29,36.16,.1,54.23,.1,17.71,0,35.73,.93,53.41-.32-.45,3.18-.66,6.41-.71,9.57-18.2-1.07-36.7-.22-54.93-.24m-54.85-1.09c.26-15.16-7.1-31.52-22.12-36.21-.06-.02-.12-.02-.17-.02-16.38-5.14-36.64-1.01-45.44,14.28,1.52-3.01,3.5-5.87,6.09-8.52,7.8-7.99,19.03-10.58,29.83-9.1,9.43,1.29,19.09,4.91,25.34,12.4,6.51,7.79,6.55,17.61,8.11,27.09-.07-.02-.14-.05-.23-.05-.49,0-.95-.03-1.41,.14m-66.61,7.66c-2.04-7.06-3.61-15.06-1.54-22.25,5.75-19.95,27.85-23.19,45.5-20.75,.03,.04,.06,.08,.11,.11,15.01,10.37,23.51,25.87,18.68,44.53-5.14,19.85-25.22,21.95-42.48,17.28-10.39-2.81-17.23-8.4-20.27-18.92m-5.8-8.91s-.03,0-.04,0c.1-1.89,.24-3.76,.46-5.58-.08,1.94,0,3.89,.21,5.82-.21-.08-.41-.19-.63-.23m-27.83-2.55c-4.05-2.59-6.78-5.23-8.59-9.01,11.53,.85,24.05,.66,35.53-.32-.81,3.63-1.1,7.47-.79,11.42-3.84-.93-7.92-.86-11.85-1.11-4.6-.3-9.41-1-14.02-.67-.06-.11-.15-.22-.28-.3m-12.33-29.49c-.72-9.23,.55-18.69-.35-27.84,.89-.79,1.39-1.88,2.05-2.87,.79-1.18,1.64-2.3,2.57-3.38,1.37-1.58,3.18-2.88,4.38-4.6,20.36,.94,41,.38,61.58-.41-.03,.86,.02,1.7,.12,2.57,.01,.12,.03,.23,.04,.35-1.16,.62-2.29,1.27-3.34,2.07-.99,.76-2.08,1.47-2.66,2.61,0,0,0,.01,0,.02-.36,.06-.67,.38-.56,.88,.31,1.47,.64,2.97,1,4.48-20.4,.05-40.8,.24-61.17,.75-.51,.01-.51,.79,0,.8,20.57,.52,41.15,.71,61.74,.76,1.26,4.91,2.84,9.85,4.99,14.21,.35,.71,1.25,.15,1.16-.49-.64-4.53-1.97-9.21-3.56-13.72,27.13,.05,54.27-.13,81.39-.12,2.68,15.72,6.66,31.98,11.5,46.97-15.15-.03-30.3-.13-45.44,.12-.12,0-.21,.04-.3,.07-.97-7.58-3.66-14.94-9.14-20.36-7.29-7.22-17.89-10.91-27.96-11.63-2.2-.16-4.37-.12-6.47,.09,.1-.24,0-.57-.34-.57-.38,0-.47,.41-.31,.65-15.13,1.77-27.26,12.65-31.19,27-11.92-1.04-25-1.24-36.94-.29-.24-.7-.46-1.44-.65-2.22-1.27-5.14-1.71-10.61-2.12-15.88m-.52-32.62c-.75-11.93,18.81-11.44,27.36-11.84,9.21-.44,18.43-.87,27.64-1.23,17.35-.69,34.71-1.19,52.06-1.64,14.96-.38,29.92-.58,44.88-.68,.33,.12,.69,.11,.99,0,2.61-.01,5.22-.06,7.84-.06,17.09-.05,34.62,1.2,51.67-.34-.65,.94-1.62,1.85-2.98,3.04-33.41,.08-66.83,1.65-100.23,2.29-33.33,.65-67.29-.54-100.52,2-.6,.04-.95,.41-1.08,.84-2.12,.99-3.84,3.07-5.3,4.78-.73,.86-1.59,1.82-2.34,2.84"/><path d="M241.18,125.28c-1.39,12.3,7.76,21.99,19.65,23.24,12.08,1.27,23.42-5.51,25.06-18.22,1.56-12.12-7.26-21.4-18.19-23.85-.01,0-.02-.01-.03-.02-.51-.13-1.02-.2-1.53-.29-.11-.02-.22-.05-.33-.06-.61-.09-1.22-.15-1.83-.19-.18-.02-.35-.05-.52-.06-.03,0-.05,0-.08,0-10.95-.36-20.92,8.16-22.19,19.43m22.14,21.22c-12.23-.49-22.55-10.49-19.57-23.23,2.47-10.59,11.8-15.2,21.68-15.6,11.41,2.4,20.92,12.02,18.37,24.62-1.9,9.38-11.33,14.57-20.49,14.2"/><path d="M246.58,127.67c-.87,10.73,9.24,17.39,19.21,17.29,10.31-.1,16.18-11.83,14.37-21.09-1.61-8.28-9.07-13.19-16.92-12.43-9.2-1.18-15.94,7.4-16.67,16.24m19.21,14.66c-9.24,.12-19.35-6.04-17.29-16.49,1.49-7.57,7.49-12.34,14.83-12.77,5.4,.26,10.62,2.03,13.37,7.33,4.29,8.27-.59,21.8-10.92,21.93"/><path d="M84.09,102.11c-26.29-8.01-38.65,41.27-9.89,44.76,12.29,1.49,24.81-6.19,27.42-18.53,2.5-11.81-4.96-24-16.93-26.34-.24-.05-.45,0-.6,.11m-5.94,42.45c-14.37,.61-21.27-14.22-17.2-26.72,3.76-11.54,15.15-16.2,26.22-13.12,8.31,4.24,14.11,11.94,12.47,21.95-1.77,10.75-10.89,17.43-21.49,17.88"/><path d="M80.98,105.94c-17.18-5.85-24.84,32.2-3.17,35.38,22.39,3.28,25.41-34.13,3.17-35.38m-.93,32.62c-20.04-.1-17.55-33.71,1.03-30.78,7.33,2.89,13.52,7.25,13.64,16.12,.11,8.19-6.46,14.7-14.67,14.66"/><path d="M52.26,131.48c.86-1.2,2.86-.05,1.99,1.17-.8,1.12-1.52,2.57-2.84,3.12-.49,.2-1.09-.31-1.06-.81,.07-1.34,1.16-2.43,1.91-3.47"/><path d="M52.92,138.23c.07-.41,.23-.77,.38-1.15,.43-1.13,2.11-.35,1.49,.63-.25,.4-.48,.79-.81,1.14-.47,.5-1.16-.03-1.06-.62"/><path d="M241.1,143.62c.4-.82,1.85-.23,1.49,.63-.39,.95-.67,1.99-1.49,2.67-.39,.32-.97,.12-.99-.41-.05-1.07,.53-1.96,.99-2.89"/><path d="M243.46,147.85c.14-.34,.36-.6,.59-.88,.59-.74,1.63,.31,1.04,1.05-.23,.29-.44,.51-.75,.73-.59,.43-1.11-.37-.89-.89"/><path d="M164.83,63.02c-1.84,.96-2.74,3.03-.92,4.47,1.54,1.21,5.95,.78,7.85,.89,2.6,.14,6,.9,8.54,.32,2.69-.61,2.72-3.07,1.3-5.1-.07-.1-.16-.17-.26-.22-.07-.14-.19-.25-.41-.28-3.06-.51-6.16-.54-9.26-.63-2.18-.06-4.81-.51-6.83,.55m2.35,3.38c-1.14,.27-1.23-.37-.27-1.91,.65,.01,1.3,.03,1.95,.04,1.17,.03,2.33,.05,3.5,.07,2.67,.03,5.34,.09,8-.2,1,3.46-3.95,2.26-5.98,2.17-1.31-.05-2.62-.12-3.93-.16-.89-.03-2.55,.33-3.27-.02"/><path d="M79.74,62.26c-2.24,.13-4.36,1.79-3.14,4.15,1.75,3.39,8.68,2.38,11.66,2.44,3.48,.07,10.26,1.75,11.28-2.91,.19-.87-.63-1.39-1.29-1.24,0,0,0,0,0,0-3.07-1.13-6.41-1.26-9.64-1.59-2.86-.3-5.99-1.02-8.86-.85m1.81,4.67c-.61-.78-1.21-1.56-1.81-2.34,.58,.01,1.16,.06,1.73,.12,5.16,.42,10.7,1.65,15.89,1.07-1.38,1.97-9.11,1-10.78,1.01-.95,0-4.19,.5-5.03,.14"/><path d="M345.54,93.01c-5.39-2.25-14.29-4.05-14.14,3.98,.15,8.27,1.82,18.42,11.22,20.26,4.58,.9,14.89,1.6,15.66-4.61,.18-.13,.31-.32,.29-.58-.57-8.49-4.95-15.67-13.02-19.05m-10.35,12.01c-.56-2.35-2.13-6.71-1.37-8.98,1.22-3.65,6.27-2.16,10.47,0-.65,.26-1.24,.65-1.76,1.16-1.05,1.04-1.42,2.27-1.35,3.72,.02,.38,.63,.51,.69,.09,.28-1.9,1.85-3.72,3.73-4.27,1.85,1.06,3.42,2.17,4.19,2.86,3.29,2.93,5.78,7.22,6.98,11.51-2.12,3.7-8.49,4.55-13.3,3.52-.19-1.03-.51-2.03-.74-3.05-.35-1.58-.68-3.16-1.02-4.75-.09-.44-.73-.24-.66,.18,.24,1.49,.48,2.98,.71,4.47,.14,.91,.22,1.86,.36,2.79-.83-.26-1.58-.57-2.22-.94-3-1.76-3.95-5.2-4.7-8.34"/><path d="M317.18,56.11c.91-.81,2.38-.77,3.51-.78,2.13,0,4.2,.33,6.26,.81,.7,.16,.39,1.16-.29,1.05-1.54-.24-3.09-.38-4.65-.44-.73-.03-1.47-.08-2.2-.03-.32,.04-.63,.08-.95,.11-.58,1.42-.35,2.11,.7,2.05,1.16,.37,2.71,.22,3.92,.3,.55,.03,1.1,.07,1.65,.11,.38,.03,.76,.06,1.15,.09,.66,.12,1.18-.21,1.56-.99-.62-.42-.26-1.5,.53-1.27,1.88,.56,1.47,2.97-.09,3.7-1.18,.55-2.75,.19-3.97,.06-1.86-.19-3.95-.16-5.75-.7-1.79-.54-3.01-2.63-1.38-4.08"/><path d="M299.64,55.96c.3-.59,1.15-.07,.88,.52,.49,1.72,1.43,2.33,2.82,1.84,.08-.01,.17-.02,.25-.03,1.06-.09,2.12-.11,3.18-.13,1.65-.02,3.31-.01,4.96,.01-.27-.83-1.59-1.32-3.25-1.61-.9-.02-1.81-.07-2.69-.25-.05,0-.07-.05-.11-.07-2.14-.14-4.15-.1-4.73-.11-.84-.02-.82-1.22,0-1.3,2.91-.26,6.44-.08,9.37,.65,.11,0,.23,.02,.34,.02,.13,0,.23,.06,.31,.12,.02,0,.05,0,.07,.02,1.79,.52,2.97,1.88,2.57,3.77-.09,.43-.54,.71-.95,.72-2.13,.08-15.91,1.46-13.05-4.17"/></g></svg>